<?xml version="1.0" encoding="UTF-8" ?>
<!DOCTYPE svg PUBLIC "-//W3C//DTD SVG 1.1//EN" "http://www.w3.org/Graphics/SVG/1.1/DTD/svg11.dtd">
<svg width="620pt" height="640pt" viewBox="0 0 620 640" version="1.1" xmlns="http://www.w3.org/2000/svg">
<g id="#edefefff">
</g>
<g id="#eaebedff">
</g>
<g id="#1c356eff">
<path fill="#1c356e" opacity="1.00" d=" M 267.17 56.05 C 276.83 41.97 293.99 33.49 311.02 34.10 C 325.98 34.23 340.66 41.34 350.13 52.92 C 358.74 62.97 362.44 76.48 361.69 89.57 C 360.33 103.46 353.34 116.78 342.20 125.28 C 334.11 131.70 324.08 135.50 313.81 136.33 C 313.38 165.21 313.76 194.12 313.62 223.01 C 313.61 323.03 313.60 423.05 313.65 523.07 C 316.32 521.51 319.01 519.98 321.71 518.46 C 323.89 517.22 326.08 515.99 328.27 514.76 C 350.62 502.17 372.90 489.42 395.27 476.84 C 396.57 476.11 397.87 475.37 399.18 474.64 C 405.26 471.12 411.43 467.76 417.49 464.21 C 417.57 456.68 417.47 449.15 417.49 441.62 L 417.74 441.49 C 418.17 448.92 418.45 456.36 418.22 463.80 C 419.00 463.38 419.79 462.96 420.59 462.55 C 420.75 455.00 420.40 447.45 420.74 439.92 C 420.94 439.80 421.33 439.57 421.53 439.45 C 421.46 446.93 421.47 454.41 421.51 461.89 C 439.20 452.03 456.75 441.90 474.43 432.03 C 475.86 431.24 477.30 430.48 478.72 429.66 C 484.74 425.72 492.00 421.46 493.92 414.02 C 494.55 405.26 494.00 396.45 494.17 387.67 C 488.91 387.45 483.72 386.40 478.71 384.83 C 477.25 384.33 475.82 383.76 474.41 383.17 C 461.90 377.83 451.17 368.20 445.03 356.00 C 436.79 340.59 436.39 321.34 443.74 305.52 C 449.75 292.19 460.98 281.45 474.43 275.78 C 475.82 275.18 477.23 274.64 478.67 274.16 C 492.90 269.61 508.98 270.13 522.60 276.50 C 538.31 283.56 550.71 297.87 555.05 314.59 C 558.06 326.46 557.48 339.32 552.95 350.73 C 544.89 371.61 523.82 386.96 501.36 387.57 C 501.03 387.58 500.37 387.60 500.04 387.61 C 500.00 394.39 500.22 401.18 500.03 407.97 C 499.91 410.59 500.45 413.18 501.09 415.72 C 498.35 426.51 487.79 432.87 478.69 438.00 C 477.24 438.75 475.78 439.49 474.37 440.31 C 456.82 450.51 439.08 460.38 421.43 470.41 C 421.86 480.07 420.87 489.88 421.93 499.44 L 422.60 499.60 C 422.33 499.74 421.80 500.01 421.53 500.14 C 419.57 490.55 421.77 480.69 421.01 471.00 C 419.03 471.87 417.07 472.81 415.19 473.90 C 409.89 476.95 404.57 479.96 399.25 482.97 C 397.92 483.72 396.60 484.48 395.29 485.24 C 372.92 497.92 350.52 510.54 328.19 523.30 C 326.02 524.55 323.84 525.78 321.64 526.98 C 318.92 528.46 316.23 529.99 313.54 531.54 C 313.69 567.69 313.59 603.85 313.63 640.00 L 306.28 640.00 C 306.23 618.07 306.32 596.14 306.24 574.22 C 306.24 571.50 306.23 568.79 306.43 566.08 C 308.88 559.64 307.86 552.68 308.04 545.96 C 308.18 537.50 307.86 529.03 308.21 520.58 C 309.41 520.21 310.61 519.84 311.81 519.49 C 312.45 503.33 311.92 487.15 312.10 470.98 C 312.06 360.30 312.10 249.63 312.08 138.95 C 312.22 137.13 311.33 135.56 310.28 134.16 C 308.97 134.96 307.66 135.76 306.34 136.55 L 305.25 136.37 C 285.77 134.59 267.68 121.37 261.03 102.84 C 255.40 87.46 257.58 69.39 267.17 56.05 M 294.23 52.26 C 291.73 53.43 289.94 56.05 290.22 58.88 C 290.18 74.29 290.18 89.70 290.22 105.12 C 289.98 108.35 292.52 111.84 295.94 111.74 C 305.62 111.84 315.30 111.77 324.98 111.76 C 328.69 112.17 331.43 108.44 331.44 105.04 C 331.35 89.71 331.42 74.37 331.40 59.04 C 331.77 55.37 328.74 51.82 325.02 51.76 C 317.03 51.45 309.01 51.77 301.01 51.63 C 298.75 51.71 296.37 51.39 294.23 52.26 M 458.69 311.04 C 458.65 321.04 458.62 331.05 458.69 341.05 C 458.59 342.86 459.97 344.88 461.95 344.76 C 467.69 345.01 473.45 344.68 479.20 344.85 C 480.90 344.47 480.43 346.68 480.78 347.64 C 474.67 347.75 468.56 347.61 462.45 347.74 C 462.54 348.24 462.72 349.23 462.81 349.73 C 463.78 351.13 465.51 350.88 467.00 350.93 C 480.00 350.91 493.01 350.86 506.01 350.82 L 506.07 349.64 C 506.70 349.63 507.97 349.61 508.60 349.60 C 508.54 349.11 508.40 348.13 508.34 347.64 C 503.08 347.74 497.82 347.65 492.57 347.71 C 492.55 347.04 492.51 345.71 492.49 345.04 C 498.29 344.49 504.13 345.14 509.93 344.70 C 511.94 344.18 512.70 341.89 512.57 340.02 C 512.51 330.05 512.68 320.08 512.49 310.12 C 512.57 307.76 510.26 306.04 508.02 306.38 C 493.01 306.41 478.00 306.38 463.00 306.40 C 460.36 305.95 458.34 308.55 458.69 311.04 M 524.40 306.61 C 522.59 307.12 520.70 307.97 519.70 309.64 C 517.33 313.31 518.40 317.87 518.18 321.98 C 517.83 328.96 518.21 335.94 518.25 342.92 C 518.22 346.15 520.18 349.49 523.41 350.39 C 528.18 351.40 533.34 351.70 537.99 350.00 C 541.25 348.90 542.75 345.28 542.74 342.07 C 542.81 333.70 542.71 325.32 542.78 316.95 C 542.90 313.59 541.92 309.75 538.82 307.96 C 534.52 305.39 529.14 306.11 524.40 306.61 Z" />
<path fill="#1c356e" opacity="1.00" d=" M 296.15 58.20 C 305.87 57.51 315.62 57.99 325.36 57.77 C 325.53 70.25 325.45 82.73 325.41 95.21 C 315.68 95.05 305.94 95.27 296.21 95.11 C 296.15 82.81 296.27 70.50 296.15 58.20 Z" />
<path fill="#1c356e" opacity="1.00" d=" M 461.87 313.02 C 461.66 310.61 463.62 308.82 465.97 308.93 C 477.29 308.67 488.64 308.95 499.97 308.82 C 503.23 308.83 506.95 308.31 509.47 310.87 C 509.50 319.91 509.57 328.96 509.45 338.00 C 509.67 339.78 507.81 341.54 506.07 341.40 C 492.69 341.49 479.31 341.42 465.92 341.43 C 463.51 341.89 461.63 339.36 461.84 337.12 C 461.83 329.09 461.77 321.05 461.87 313.02 Z" />
<path fill="#1c356e" opacity="1.00" d=" M 90.18 363.18 C 100.34 356.23 113.89 354.96 125.34 359.29 C 126.72 359.81 128.07 360.40 129.42 361.02 C 136.71 365.04 142.78 371.35 146.09 379.04 C 149.64 386.94 149.98 396.03 147.77 404.35 C 147.52 405.79 147.30 407.26 147.09 408.73 C 146.88 408.70 146.46 408.65 146.25 408.63 C 140.55 421.75 127.08 430.69 112.82 431.20 C 112.01 431.07 111.20 430.96 110.38 430.88 C 93.27 431.23 77.34 417.66 74.44 400.88 C 71.36 386.63 78.08 371.15 90.18 363.18 M 104.19 373.30 C 99.10 374.82 94.44 378.08 91.53 382.56 C 86.95 389.43 86.77 399.01 91.23 405.99 C 95.25 412.75 103.15 416.81 110.97 416.50 C 120.54 416.38 129.68 409.42 131.93 400.04 C 133.85 392.64 131.66 384.27 126.12 378.95 C 120.52 373.29 111.81 371.22 104.19 373.30 Z" />
<path fill="#1c356e" opacity="1.00" d=" M 104.37 377.40 C 115.05 373.31 128.04 381.68 128.63 393.10 C 129.67 403.11 120.96 412.51 110.99 412.65 C 100.50 413.35 90.86 403.49 91.97 393.01 C 92.62 385.97 97.65 379.60 104.37 377.40 M 108.21 392.91 C 106.10 389.72 103.20 386.69 99.51 385.42 C 100.71 389.00 104.13 391.87 107.55 393.28 C 107.50 395.12 107.72 397.18 109.92 397.58 C 112.62 397.55 112.72 394.62 113.30 392.70 C 116.43 391.21 118.24 388.03 120.68 385.69 C 121.42 384.81 123.62 382.54 120.93 382.36 C 116.64 385.79 114.06 391.91 108.21 392.91 Z" />
</g>
<g id="#8ed8f8ff">
<path fill="#8ed8f8" opacity="1.00" d=" M 294.23 52.26 C 296.37 51.39 298.75 51.71 301.01 51.63 C 309.01 51.77 317.03 51.45 325.02 51.76 C 328.74 51.82 331.77 55.37 331.40 59.04 C 331.42 74.37 331.35 89.71 331.44 105.04 C 331.43 108.44 328.69 112.17 324.98 111.76 C 315.30 111.77 305.62 111.84 295.94 111.74 C 292.52 111.84 289.98 108.35 290.22 105.12 C 290.18 89.70 290.18 74.29 290.22 58.88 C 289.94 56.05 291.73 53.43 294.23 52.26 M 296.15 58.20 C 296.27 70.50 296.15 82.81 296.21 95.11 C 305.94 95.27 315.68 95.05 325.41 95.21 C 325.45 82.73 325.53 70.25 325.36 57.77 C 315.62 57.99 305.87 57.51 296.15 58.20 M 307.76 100.00 C 307.34 101.78 306.69 104.25 308.86 105.19 C 311.07 107.00 313.33 104.83 314.80 103.22 C 314.28 101.11 313.04 99.45 311.08 98.51 C 309.98 99.01 308.87 99.51 307.76 100.00 Z" />
</g>
<g id="#325899ff">
<path fill="#325899" opacity="1.00" d=" M 411.05 74.69 C 422.87 72.08 435.64 75.18 445.28 82.42 C 451.43 87.62 456.62 94.18 459.05 101.95 C 462.71 113.16 461.32 126.00 455.02 136.02 C 447.96 147.56 435.03 154.94 421.57 155.70 C 421.60 160.58 421.46 165.47 421.71 170.35 C 421.48 186.45 421.55 202.55 421.67 218.65 C 420.26 217.19 418.83 215.76 417.32 214.43 C 417.56 194.85 417.30 175.27 417.45 155.69 C 403.29 154.86 389.64 146.68 382.97 134.05 C 374.44 118.94 377.29 98.49 389.63 86.27 C 395.49 80.50 402.91 76.18 411.05 74.69 M 429.45 92.31 C 429.22 105.56 429.48 118.80 429.30 132.05 C 432.03 132.09 434.75 132.15 437.48 132.25 C 437.67 119.18 437.71 106.09 437.48 93.03 C 436.55 89.33 431.37 89.39 429.45 92.31 M 419.69 101.65 C 418.12 103.01 418.70 105.23 418.54 107.04 C 418.62 115.40 418.47 123.76 418.56 132.11 C 421.30 132.09 424.05 132.09 426.81 132.14 C 426.85 122.74 426.96 113.33 426.77 103.94 C 426.90 102.21 425.20 101.35 424.23 100.23 C 422.70 100.60 420.78 100.27 419.69 101.65 M 408.13 113.90 C 407.72 119.96 408.09 126.04 407.95 132.11 C 410.70 132.10 413.46 132.11 416.22 132.12 C 416.21 127.09 416.28 122.05 416.26 117.01 C 416.19 115.11 416.19 112.66 414.24 111.64 C 412.03 110.73 408.72 111.19 408.13 113.90 M 397.18 132.12 C 399.92 132.10 402.66 132.10 405.40 132.12 C 405.40 129.38 405.41 126.64 405.41 123.91 C 404.63 123.13 403.86 122.36 403.10 121.58 C 402.27 121.53 400.62 121.41 399.79 121.36 C 395.95 123.65 397.29 128.42 397.18 132.12 Z" />
<path fill="#325899" opacity="1.00" d=" M 213.64 346.25 C 226.51 341.25 241.74 342.22 253.69 349.24 C 262.29 354.06 269.17 361.78 272.93 370.90 C 278.14 382.71 277.49 396.73 271.78 408.25 C 264.52 422.99 248.88 432.83 232.52 433.50 C 232.58 447.65 232.57 461.80 232.54 475.95 C 232.31 481.75 235.56 487.48 240.65 490.26 C 250.06 495.61 259.51 500.90 268.96 506.18 C 274.20 508.89 277.38 514.24 279.59 519.51 C 283.82 529.92 282.31 541.36 282.55 552.30 C 281.17 551.49 279.79 550.70 278.40 549.93 C 278.04 540.87 279.57 531.44 276.29 522.75 C 274.31 517.58 271.46 512.25 266.39 509.57 C 257.22 504.46 248.09 499.26 238.92 494.14 C 232.75 490.79 228.28 484.20 228.32 477.07 C 228.41 469.14 228.45 461.20 228.41 453.27 C 228.40 451.71 228.39 450.16 228.39 448.61 C 228.40 443.56 228.40 438.52 228.45 433.48 C 213.53 432.70 199.04 424.56 191.36 411.63 C 184.44 400.50 182.88 386.29 187.14 373.91 C 191.29 361.35 201.40 351.11 213.64 346.25 M 224.52 376.00 C 221.54 375.31 218.33 374.16 215.37 375.57 C 211.95 376.70 210.24 380.15 209.29 383.38 C 206.49 383.36 203.42 383.27 201.13 385.18 C 196.26 388.52 196.35 396.58 201.17 399.93 C 203.09 401.54 205.62 401.92 208.04 401.86 C 221.03 401.84 234.03 401.81 247.02 401.86 C 249.04 401.83 251.15 401.84 253.03 401.00 C 258.00 398.99 261.35 393.10 259.85 387.83 C 258.64 382.37 252.97 378.55 247.44 379.16 C 247.01 372.46 240.72 366.65 233.91 368.08 C 229.46 368.53 226.13 372.04 224.52 376.00 Z" />
</g>
<g id="#0088baff">
<path fill="#0088ba" opacity="1.00" d=" M 186.61 82.59 C 200.13 74.66 217.66 74.26 231.61 81.38 C 241.80 86.37 249.86 95.29 254.12 105.78 C 259.34 118.51 258.23 133.53 251.45 145.48 C 243.86 159.31 228.84 168.21 213.23 169.37 C 213.21 191.61 213.20 213.86 213.22 236.10 C 213.19 242.67 216.75 249.28 222.62 252.39 C 232.93 258.16 243.12 264.15 253.34 270.06 C 254.79 270.95 256.22 271.88 257.70 272.72 C 266.91 277.66 275.78 283.19 284.96 288.17 C 290.51 291.25 294.59 296.70 296.36 302.77 C 298.24 309.04 298.35 315.66 298.17 322.16 C 300.78 323.58 303.42 324.93 306.12 326.17 C 305.96 327.12 305.79 328.07 305.61 329.02 C 303.20 327.61 300.67 326.42 298.17 325.19 C 298.18 403.89 298.24 482.59 298.22 561.29 C 295.17 559.57 292.12 557.85 289.09 556.11 C 289.71 556.45 290.94 557.13 291.55 557.47 C 291.49 528.17 291.65 498.86 291.51 469.56 C 291.60 420.23 291.56 370.90 291.56 321.57 C 291.55 320.60 291.56 319.65 291.57 318.69 C 291.90 310.02 290.54 299.54 282.65 294.38 C 274.21 289.87 266.06 284.85 257.71 280.19 C 256.71 279.61 255.72 279.03 254.73 278.45 C 253.00 277.44 251.27 276.44 249.55 275.43 C 242.00 270.98 234.36 266.68 226.82 262.21 C 222.31 259.46 217.12 257.55 213.51 253.53 C 208.99 248.89 206.64 242.38 206.68 235.95 C 206.74 213.71 206.76 191.48 206.66 169.25 C 191.95 168.13 177.87 160.00 170.13 147.37 C 163.60 137.27 161.83 124.67 164.06 112.97 C 166.81 100.24 175.28 88.97 186.61 82.59 M 220.38 97.33 C 220.07 98.80 219.77 100.27 219.46 101.75 C 218.87 101.75 217.68 101.74 217.09 101.74 C 215.91 101.14 214.78 100.11 213.36 100.35 C 212.60 101.14 211.89 101.96 211.21 102.81 C 212.01 104.23 213.66 105.37 213.58 107.15 C 212.79 109.17 210.37 108.53 208.70 108.97 C 208.67 110.34 208.65 111.72 208.63 113.10 C 210.52 113.23 212.39 113.59 214.00 114.65 C 213.14 116.15 212.26 117.65 211.39 119.15 C 212.11 120.08 212.83 121.01 213.54 121.95 C 214.75 121.42 215.95 120.86 217.14 120.28 C 217.75 120.26 218.97 120.22 219.59 120.20 C 219.81 121.67 220.03 123.14 220.26 124.62 C 221.63 124.63 223.00 124.63 224.38 124.64 C 224.81 122.71 225.26 120.71 226.75 119.29 C 228.18 120.36 229.70 121.32 231.42 121.86 C 232.19 120.90 232.97 119.95 233.76 119.00 C 232.95 118.04 232.15 117.08 231.34 116.12 C 231.59 115.47 232.08 114.16 232.32 113.51 C 233.67 113.39 235.02 113.28 236.37 113.17 C 236.37 111.71 236.38 110.25 236.38 108.79 C 234.16 108.68 231.40 108.90 231.25 105.90 C 232.13 104.89 233.00 103.88 233.88 102.86 C 232.75 101.84 231.61 100.84 230.45 99.86 C 229.31 100.79 228.18 101.71 227.05 102.64 C 226.51 102.23 225.45 101.42 224.92 101.02 C 224.77 99.77 224.62 98.52 224.47 97.27 C 223.11 97.29 221.74 97.31 220.38 97.33 M 190.17 116.24 C 190.46 118.34 190.88 120.42 191.44 122.47 C 189.24 125.32 185.77 123.74 182.80 123.40 C 182.27 125.20 181.79 127.01 181.35 128.84 C 183.12 129.73 184.87 130.66 186.59 131.64 C 186.50 132.50 186.31 134.22 186.21 135.07 C 184.55 136.03 182.89 136.98 181.23 137.93 C 182.05 139.59 182.88 141.25 183.73 142.90 C 185.56 142.44 187.39 141.96 189.22 141.47 C 192.64 142.96 190.92 146.69 190.40 149.41 C 192.03 150.16 193.67 150.91 195.31 151.65 C 196.90 149.92 197.83 147.40 199.97 146.31 C 202.81 146.22 203.21 149.55 205.05 151.02 C 206.94 150.93 208.68 150.10 210.40 149.39 C 209.90 147.35 209.20 145.32 209.24 143.20 C 210.97 140.15 214.62 142.39 217.27 142.57 C 218.06 140.74 218.63 138.83 218.72 136.83 C 217.10 135.73 214.04 135.51 214.07 133.03 C 213.85 130.21 217.19 129.49 218.95 128.04 C 218.43 126.43 217.90 124.83 217.39 123.22 C 214.40 123.05 210.18 125.39 208.66 121.67 C 209.28 119.89 209.56 118.03 209.82 116.17 C 208.11 115.50 206.39 114.83 204.68 114.17 C 203.60 115.97 202.60 117.84 201.21 119.43 C 197.81 120.45 196.75 116.45 195.11 114.37 C 193.46 114.98 191.81 115.60 190.17 116.24 Z" />
<path fill="#0088ba" opacity="1.00" d=" M 198.15 126.16 C 203.60 124.01 209.70 130.79 206.67 135.93 C 204.66 140.52 197.68 141.20 194.63 137.36 C 191.40 133.79 193.27 127.12 198.15 126.16 Z" />
<path fill="#0088ba" opacity="1.00" d=" M 364.09 214.99 C 378.69 202.15 402.41 202.03 417.32 214.43 C 418.83 215.76 420.26 217.19 421.67 218.65 C 435.83 233.27 435.70 258.67 421.63 273.33 C 420.31 274.76 418.90 276.12 417.42 277.38 C 410.83 282.68 402.70 285.80 394.31 286.67 C 394.32 298.78 394.33 310.89 394.33 323.01 C 394.36 331.03 389.67 338.75 382.71 342.66 C 367.49 351.14 352.39 359.85 337.13 368.26 C 330.75 372.07 328.17 379.88 328.21 386.98 C 328.24 429.57 328.22 472.17 328.27 514.76 C 326.08 515.99 323.89 517.22 321.71 518.46 C 321.66 474.32 321.68 430.17 321.72 386.02 C 321.81 377.05 325.50 367.33 333.65 362.74 C 348.89 354.25 364.10 345.68 379.28 337.08 C 384.24 334.26 387.83 328.83 387.66 323.02 C 387.68 310.91 387.64 298.79 387.67 286.68 C 381.73 285.97 375.87 284.33 370.64 281.41 C 358.84 275.01 350.73 262.39 349.72 249.02 C 349.17 240.76 350.91 232.23 355.41 225.20 C 357.72 221.35 360.67 217.90 364.09 214.99 M 371.69 236.95 C 370.65 237.71 369.02 238.25 369.19 239.87 C 369.13 243.96 370.28 247.94 370.92 251.96 C 371.67 255.60 371.61 259.87 374.85 262.36 C 384.25 262.33 393.66 262.27 403.06 262.37 C 404.88 262.46 406.64 261.95 408.37 261.42 C 408.85 259.65 409.47 257.88 409.40 256.01 C 409.35 249.00 409.40 241.98 409.32 234.97 C 409.45 233.24 408.55 231.75 407.82 230.27 C 400.90 229.42 393.92 230.04 386.98 229.83 C 386.38 229.12 385.77 228.42 385.18 227.72 C 382.15 227.73 379.13 227.75 376.12 227.83 C 373.46 230.22 370.96 233.07 371.69 236.95 Z" />
</g>
<g id="#f6f6f6ff">
</g>
<g id="#f1f1f3ff">
</g>
<g id="#8dd8f7ff">
<path fill="#8dd8f7" opacity="1.00" d=" M 429.45 92.31 C 431.37 89.39 436.55 89.33 437.48 93.03 C 437.71 106.09 437.67 119.18 437.48 132.25 C 434.75 132.15 432.03 132.09 429.30 132.05 C 429.48 118.80 429.22 105.56 429.45 92.31 Z" />
<path fill="#8dd8f7" opacity="1.00" d=" M 136.52 271.66 C 152.95 270.83 169.49 271.53 185.95 271.30 C 190.95 270.59 195.86 275.03 195.45 280.09 C 195.46 290.06 195.46 300.04 195.45 310.01 C 195.61 314.43 191.45 318.28 187.10 318.19 C 171.08 318.18 155.06 318.17 139.04 318.19 C 134.25 318.41 130.04 313.74 130.45 309.03 C 130.49 299.32 130.45 289.62 130.46 279.91 C 130.34 276.22 133.00 272.70 136.52 271.66 M 142.36 278.46 C 140.26 278.42 138.26 280.13 138.44 282.32 C 138.30 290.57 138.30 298.84 138.45 307.09 C 138.41 310.02 141.44 311.58 144.06 311.39 C 156.03 311.55 168.01 311.41 179.98 311.46 C 182.46 311.30 185.70 311.51 187.23 309.12 C 188.28 306.22 188.08 303.07 188.11 300.05 C 188.00 293.88 188.41 287.66 187.54 281.54 C 187.08 278.47 183.42 278.27 180.98 278.29 C 168.11 278.42 155.22 278.07 142.36 278.46 Z" />
</g>
<g id="#8fd8f7ff">
<path fill="#8fd8f7" opacity="1.00" d=" M 220.38 97.33 C 221.74 97.31 223.11 97.29 224.47 97.27 C 224.62 98.52 224.77 99.77 224.92 101.02 C 225.45 101.42 226.51 102.23 227.05 102.64 C 228.18 101.71 229.31 100.79 230.45 99.86 C 231.61 100.84 232.75 101.84 233.88 102.86 C 233.00 103.88 232.13 104.89 231.25 105.90 C 231.40 108.90 234.16 108.68 236.38 108.79 C 236.38 110.25 236.37 111.71 236.37 113.17 C 235.02 113.28 233.67 113.39 232.32 113.51 C 232.08 114.16 231.59 115.47 231.34 116.12 C 232.15 117.08 232.95 118.04 233.76 119.00 C 232.97 119.95 232.19 120.90 231.42 121.86 C 229.70 121.32 228.18 120.36 226.75 119.29 C 225.26 120.71 224.81 122.71 224.38 124.64 C 223.00 124.63 221.63 124.63 220.26 124.62 C 220.03 123.14 219.81 121.67 219.59 120.20 C 218.97 120.22 217.75 120.26 217.14 120.28 C 215.95 120.86 214.75 121.42 213.54 121.95 C 212.83 121.01 212.11 120.08 211.39 119.15 C 212.26 117.65 213.14 116.15 214.00 114.65 C 212.39 113.59 210.52 113.23 208.63 113.10 C 208.65 111.72 208.67 110.34 208.70 108.97 C 210.37 108.53 212.79 109.17 213.58 107.15 C 213.66 105.37 212.01 104.23 211.21 102.81 C 211.89 101.96 212.60 101.14 213.36 100.35 C 214.78 100.11 215.91 101.14 217.09 101.74 C 217.68 101.74 218.87 101.75 219.46 101.75 C 219.77 100.27 220.07 98.80 220.38 97.33 M 217.37 108.96 C 216.57 112.81 219.84 117.20 224.01 115.75 C 228.36 114.81 228.87 107.89 224.67 106.38 C 221.89 104.76 219.11 106.89 217.37 108.96 Z" />
<path fill="#8fd8f7" opacity="1.00" d=" M 190.17 116.24 C 191.81 115.60 193.46 114.98 195.11 114.37 C 196.75 116.45 197.81 120.45 201.21 119.43 C 202.60 117.84 203.60 115.97 204.68 114.17 C 206.39 114.83 208.11 115.50 209.82 116.17 C 209.56 118.03 209.28 119.89 208.66 121.67 C 210.18 125.39 214.40 123.05 217.39 123.22 C 217.90 124.83 218.43 126.43 218.95 128.04 C 217.19 129.49 213.85 130.21 214.07 133.03 C 214.04 135.51 217.10 135.73 218.72 136.83 C 218.63 138.83 218.06 140.74 217.27 142.57 C 214.62 142.39 210.97 140.15 209.24 143.20 C 209.20 145.32 209.90 147.35 210.40 149.39 C 208.68 150.10 206.94 150.93 205.05 151.02 C 203.21 149.55 202.81 146.22 199.97 146.31 C 197.83 147.40 196.90 149.92 195.31 151.65 C 193.67 150.91 192.03 150.16 190.40 149.41 C 190.92 146.69 192.64 142.96 189.22 141.47 C 187.39 141.96 185.56 142.44 183.73 142.90 C 182.88 141.25 182.05 139.59 181.23 137.93 C 182.89 136.98 184.55 136.03 186.21 135.07 C 186.31 134.22 186.50 132.50 186.59 131.64 C 184.87 130.66 183.12 129.73 181.35 128.84 C 181.79 127.01 182.27 125.20 182.80 123.40 C 185.77 123.74 189.24 125.32 191.44 122.47 C 190.88 120.42 190.46 118.34 190.17 116.24 M 198.15 126.16 C 193.27 127.12 191.40 133.79 194.63 137.36 C 197.68 141.20 204.66 140.52 206.67 135.93 C 209.70 130.79 203.60 124.01 198.15 126.16 Z" />
</g>
<g id="#1c346cff">
<path fill="#1c346c" opacity="1.00" d=" M 307.76 100.00 C 308.87 99.51 309.98 99.01 311.08 98.51 C 313.04 99.45 314.28 101.11 314.80 103.22 C 313.33 104.83 311.07 107.00 308.86 105.19 C 306.69 104.25 307.34 101.78 307.76 100.00 Z" />
</g>
<g id="#8dd9f6ff">
<path fill="#8dd9f6" opacity="1.00" d=" M 419.69 101.65 C 420.78 100.27 422.70 100.60 424.23 100.23 C 425.20 101.35 426.90 102.21 426.77 103.94 C 426.96 113.33 426.85 122.74 426.81 132.14 C 424.05 132.09 421.30 132.09 418.56 132.11 C 418.47 123.76 418.62 115.40 418.54 107.04 C 418.70 105.23 418.12 103.01 419.69 101.65 Z" />
</g>
<g id="#0188beff">
<path fill="#0188be" opacity="1.00" d=" M 217.37 108.96 C 219.11 106.89 221.89 104.76 224.67 106.38 C 228.87 107.89 228.36 114.81 224.01 115.75 C 219.84 117.20 216.57 112.81 217.37 108.96 Z" />
</g>
<g id="#8cdaf9ff">
<path fill="#8cdaf9" opacity="1.00" d=" M 408.13 113.90 C 408.72 111.19 412.03 110.73 414.24 111.64 C 416.19 112.66 416.19 115.11 416.26 117.01 C 416.28 122.05 416.21 127.09 416.22 132.12 C 413.46 132.11 410.70 132.10 407.95 132.11 C 408.09 126.04 407.72 119.96 408.13 113.90 Z" />
</g>
<g id="#8cd9f8ff">
<path fill="#8cd9f8" opacity="1.00" d=" M 397.18 132.12 C 397.29 128.42 395.95 123.65 399.79 121.36 C 400.62 121.41 402.27 121.53 403.10 121.58 C 403.86 122.36 404.63 123.13 405.41 123.91 C 405.41 126.64 405.40 129.38 405.40 132.12 C 402.66 132.10 399.92 132.10 397.18 132.12 Z" />
</g>
<g id="#1a3469ff">
<path fill="#1a3469" opacity="1.00" d=" M 306.34 136.55 C 307.66 135.76 308.97 134.96 310.28 134.16 C 311.33 135.56 312.22 137.13 312.08 138.95 C 312.10 249.63 312.06 360.30 312.10 470.98 C 311.92 487.15 312.45 503.33 311.81 519.49 C 310.61 519.84 309.41 520.21 308.21 520.58 C 307.86 529.03 308.18 537.50 308.04 545.96 C 307.86 552.68 308.88 559.64 306.43 566.08 C 306.02 487.27 306.44 408.44 306.24 329.62 L 305.61 329.02 C 305.79 328.07 305.96 327.12 306.12 326.17 C 306.53 262.97 306.08 199.75 306.34 136.55 Z" />
<path fill="#1a3469" opacity="1.00" d=" M 522.87 315.30 C 527.84 315.50 532.82 315.16 537.78 315.50 C 537.99 315.88 538.39 316.64 538.59 317.02 C 533.51 317.15 528.41 317.38 523.34 316.97 C 523.22 316.56 522.99 315.72 522.87 315.30 Z" />
</g>
<g id="#fafafbff">
</g>
<g id="#fcfcfcff">
</g>
<g id="#00a1cdff">
<path fill="#00a1cd" opacity="1.00" d=" M 83.92 178.59 C 89.26 161.34 105.91 148.42 123.95 147.58 C 134.80 146.90 145.74 150.34 154.38 156.90 C 165.42 165.26 171.99 179.17 171.47 193.00 C 171.32 201.93 167.99 210.61 162.78 217.80 C 154.97 228.18 142.53 234.96 129.52 235.64 C 129.56 241.90 129.54 248.17 129.54 254.44 L 129.35 254.09 C 128.05 255.47 126.75 256.85 125.39 258.18 C 125.36 250.67 125.41 243.16 125.40 235.66 C 112.00 235.34 98.88 228.75 90.88 217.96 C 82.29 207.00 80.09 191.82 83.92 178.59 M 94.09 180.04 C 95.58 181.70 97.20 183.23 98.95 184.62 C 103.16 181.52 107.37 178.24 112.42 176.63 C 121.54 173.83 131.82 174.13 140.41 178.50 C 143.84 180.13 146.69 182.71 149.98 184.60 C 151.44 182.89 154.39 181.61 153.54 178.91 C 146.08 171.54 135.47 167.58 125.01 167.76 C 113.68 167.41 101.66 171.33 94.09 180.04 M 103.85 191.05 C 105.07 192.75 106.41 194.36 107.92 195.81 C 111.91 192.91 115.90 189.58 121.02 189.07 C 128.10 187.58 134.76 191.12 140.04 195.48 C 142.10 194.52 145.74 191.69 143.14 189.43 C 132.59 179.13 113.51 179.82 103.85 191.05 M 112.02 201.95 C 113.29 203.24 114.57 204.52 115.86 205.79 C 118.11 204.28 120.25 202.44 122.92 201.72 C 126.49 201.11 129.49 203.56 132.03 205.70 C 133.39 204.73 134.76 203.75 136.13 202.78 C 134.45 197.50 128.03 195.45 122.97 195.81 C 118.52 195.89 114.77 198.67 112.02 201.95 M 120.23 210.21 C 118.14 213.08 120.07 218.23 124.00 217.64 C 127.04 218.22 128.67 215.27 129.71 212.97 C 128.73 211.39 127.70 209.84 126.63 208.33 C 124.44 208.52 121.46 207.81 120.23 210.21 Z" />
<path fill="#00a1cd" opacity="1.00" d=" M 387.09 355.08 C 397.15 352.49 407.98 353.74 417.44 357.88 C 418.82 358.53 420.20 359.23 421.54 359.99 C 436.29 368.21 445.65 385.14 444.64 402.01 C 444.10 417.40 434.87 431.92 421.53 439.45 C 421.33 439.57 420.94 439.80 420.74 439.92 C 419.75 440.46 418.75 440.97 417.74 441.49 L 417.49 441.62 C 411.69 444.05 405.52 445.55 399.23 445.80 C 399.15 455.41 399.22 465.02 399.18 474.64 C 397.87 475.37 396.57 476.11 395.27 476.84 C 395.26 466.48 395.22 456.12 395.28 445.75 C 380.19 444.66 365.55 436.40 357.93 423.15 C 350.01 410.52 349.25 393.93 355.67 380.52 C 361.50 367.80 373.47 358.20 387.09 355.08 M 378.64 378.37 C 377.72 386.34 377.20 394.36 376.20 402.33 C 372.37 406.44 367.24 409.24 363.77 413.73 C 362.59 415.45 363.06 417.58 363.37 419.49 C 378.85 420.81 394.31 422.93 409.81 423.69 C 414.35 419.28 418.09 413.91 422.09 408.96 C 422.96 401.27 423.53 393.54 424.39 385.85 C 424.35 383.82 425.16 381.08 423.13 379.76 C 419.62 378.32 415.73 378.66 412.05 378.22 C 403.04 377.27 394.02 376.49 385.01 375.64 C 382.73 375.56 379.01 375.34 378.64 378.37 Z" />
</g>
<g id="#f5f6f6ff">
</g>
<g id="#005898ff">
<path fill="#005898" opacity="1.00" d=" M 464.18 166.44 C 476.27 162.64 489.95 164.60 500.58 171.47 C 510.67 178.06 518.12 188.96 519.56 201.03 C 521.59 214.63 516.54 229.12 506.21 238.26 C 498.76 245.18 488.77 248.95 478.70 249.61 C 478.70 257.80 478.73 265.98 478.67 274.16 C 477.23 274.64 475.82 275.18 474.43 275.78 C 474.44 267.05 474.43 258.32 474.43 249.60 C 459.81 248.62 445.81 240.14 438.92 227.09 C 432.60 215.77 432.27 201.62 437.42 189.78 C 442.56 178.71 452.46 169.95 464.18 166.44 M 460.25 188.25 C 454.10 195.47 453.88 206.93 459.57 214.48 C 461.53 216.96 463.84 219.62 467.15 220.14 C 462.07 215.91 457.79 209.92 458.18 203.01 C 457.62 192.83 466.57 182.69 477.00 183.21 C 485.28 182.87 492.67 189.51 494.76 197.26 C 496.43 202.65 495.35 208.62 492.60 213.45 C 490.95 216.45 487.89 218.20 485.84 220.86 C 491.87 218.85 496.04 212.98 497.55 206.98 C 500.47 197.11 494.51 185.85 485.07 182.06 C 476.63 178.47 466.01 181.10 460.25 188.25 M 469.52 192.52 C 463.15 197.51 463.82 209.16 471.44 212.65 C 467.63 208.81 464.96 202.93 467.79 197.74 C 471.34 190.45 483.67 190.93 486.28 198.74 C 488.54 204.00 485.44 209.43 481.57 212.92 C 487.72 210.51 490.33 202.47 487.35 196.72 C 485.53 192.61 481.31 190.27 477.00 189.69 C 474.40 190.30 471.58 190.66 469.52 192.52 M 472.17 201.98 C 471.38 204.66 474.62 206.33 474.18 208.95 C 473.47 217.60 470.26 226.03 464.91 232.88 C 466.44 232.85 467.98 232.84 469.53 232.82 C 470.65 231.10 471.81 229.40 473.00 227.73 C 475.45 227.76 477.90 227.77 480.35 227.73 C 481.69 229.48 482.91 231.33 484.04 233.22 C 485.72 233.27 487.41 233.32 489.10 233.36 C 483.13 225.85 480.31 216.41 479.34 206.99 C 480.47 205.28 482.33 203.12 481.06 200.99 C 479.66 196.89 472.41 197.39 472.17 201.98 Z" />
<path fill="#005898" opacity="1.00" d=" M 129.54 254.44 C 145.18 242.06 167.55 239.28 185.85 247.10 C 200.91 253.32 212.84 266.62 217.34 282.29 C 221.19 295.94 219.74 311.16 212.75 323.58 C 203.72 339.98 185.94 351.24 167.17 351.92 C 167.11 372.96 167.01 394.00 167.23 415.03 C 167.25 416.54 167.24 418.06 167.21 419.58 C 166.96 436.73 167.19 453.88 167.11 471.03 C 166.95 480.28 172.33 489.22 180.39 493.69 C 213.02 512.49 245.71 531.22 278.40 549.93 C 279.79 550.70 281.17 551.49 282.55 552.30 C 284.73 553.57 286.89 554.86 289.09 556.11 C 292.12 557.85 295.17 559.57 298.22 561.29 C 300.97 562.86 303.71 564.46 306.43 566.08 C 306.23 568.79 306.24 571.50 306.24 574.22 C 303.54 572.85 300.91 571.34 298.29 569.82 C 296.07 568.55 293.83 567.34 291.61 566.08 C 288.59 564.31 285.59 562.50 282.56 560.75 C 281.19 559.94 279.82 559.14 278.44 558.37 C 244.73 539.16 211.12 519.74 177.43 500.49 C 166.17 494.68 159.09 482.10 159.91 469.46 C 159.91 468.82 159.91 467.53 159.92 466.89 C 159.96 449.75 160.01 432.61 159.90 415.47 C 159.89 413.92 159.89 412.39 159.91 410.86 C 159.96 391.19 160.03 371.52 159.87 351.85 C 149.38 351.43 139.39 347.33 130.85 341.39 C 130.64 341.30 130.23 341.12 130.03 341.04 C 128.45 339.62 126.90 338.16 125.38 336.69 C 114.79 326.80 108.58 312.52 108.54 298.03 C 108.25 283.16 114.40 268.25 125.39 258.18 C 126.75 256.85 128.05 255.47 129.35 254.09 L 129.54 254.44 M 136.52 271.66 C 133.00 272.70 130.34 276.22 130.46 279.91 C 130.45 289.62 130.49 299.32 130.45 309.03 C 130.04 313.74 134.25 318.41 139.04 318.19 C 155.06 318.17 171.08 318.18 187.10 318.19 C 191.45 318.28 195.61 314.43 195.45 310.01 C 195.46 300.04 195.46 290.06 195.45 280.09 C 195.86 275.03 190.95 270.59 185.95 271.30 C 169.49 271.53 152.95 270.83 136.52 271.66 M 153.76 321.43 C 153.34 322.42 152.91 323.41 152.49 324.40 C 151.18 324.47 149.86 324.54 148.55 324.62 C 148.34 326.25 148.25 327.91 148.28 329.57 C 153.77 330.67 159.38 329.95 164.93 330.15 C 167.94 330.04 171.06 330.55 174.01 329.79 C 176.29 328.93 175.29 326.04 174.46 324.45 C 173.20 324.43 171.94 324.40 170.69 324.38 C 170.59 323.69 170.40 322.30 170.31 321.61 C 164.83 320.81 159.26 321.11 153.76 321.43 Z" />
<path fill="#005898" opacity="1.00" d=" M 142.36 278.46 C 155.22 278.07 168.11 278.42 180.98 278.29 C 183.42 278.27 187.08 278.47 187.54 281.54 C 188.41 287.66 188.00 293.88 188.11 300.05 C 188.08 303.07 188.28 306.22 187.23 309.12 C 185.70 311.51 182.46 311.30 179.98 311.46 C 168.01 311.41 156.03 311.55 144.06 311.39 C 141.44 311.58 138.41 310.02 138.45 307.09 C 138.30 298.84 138.30 290.57 138.44 282.32 C 138.26 280.13 140.26 278.42 142.36 278.46 Z" />
</g>
<g id="#0e76adff">
<path fill="#0e76ad" opacity="1.00" d=" M 222.37 191.60 C 226.17 178.03 238.99 167.69 253.01 166.58 C 265.92 165.20 279.39 171.55 286.33 182.56 C 290.09 188.26 291.91 195.12 291.82 201.93 C 291.80 212.22 286.77 222.33 278.66 228.65 C 272.69 233.45 265.20 235.93 257.61 236.46 C 257.79 248.55 257.60 260.64 257.70 272.72 C 256.22 271.88 254.79 270.95 253.34 270.06 C 253.77 270.27 254.61 270.69 255.03 270.90 C 255.06 259.42 254.85 247.95 254.90 236.47 C 244.68 235.61 234.52 231.03 228.32 222.66 C 221.44 214.07 219.33 202.12 222.37 191.60 M 232.62 193.99 C 232.61 199.32 232.41 204.68 232.71 210.01 C 232.92 212.52 235.90 212.93 237.90 212.93 C 247.28 213.00 256.67 212.91 266.05 212.98 C 268.43 212.92 270.89 213.13 273.20 212.39 C 275.25 211.17 274.91 208.47 275.50 206.47 C 280.04 205.11 280.03 197.42 275.42 196.18 C 275.16 194.81 274.90 193.45 274.67 192.09 C 273.56 191.35 272.49 190.32 271.04 190.48 C 259.68 190.38 248.31 190.52 236.94 190.42 C 234.83 190.14 232.13 191.50 232.62 193.99 Z" />
</g>
<g id="#8fd8f8ff">
<path fill="#8fd8f8" opacity="1.00" d=" M 94.09 180.04 C 101.66 171.33 113.68 167.41 125.01 167.76 C 135.47 167.58 146.08 171.54 153.54 178.91 C 154.39 181.61 151.44 182.89 149.98 184.60 C 146.69 182.71 143.84 180.13 140.41 178.50 C 131.82 174.13 121.54 173.83 112.42 176.63 C 107.37 178.24 103.16 181.52 98.95 184.62 C 97.20 183.23 95.58 181.70 94.09 180.04 Z" />
</g>
<g id="#f7f8f8ff">
</g>
<g id="#c9ecfaff">
<path fill="#c9ecfa" opacity="1.00" d=" M 460.25 188.25 C 466.01 181.10 476.63 178.47 485.07 182.06 C 494.51 185.85 500.47 197.11 497.55 206.98 C 496.04 212.98 491.87 218.85 485.84 220.86 C 487.89 218.20 490.95 216.45 492.60 213.45 C 495.35 208.62 496.43 202.65 494.76 197.26 C 492.67 189.51 485.28 182.87 477.00 183.21 C 466.57 182.69 457.62 192.83 458.18 203.01 C 457.79 209.92 462.07 215.91 467.15 220.14 C 463.84 219.62 461.53 216.96 459.57 214.48 C 453.88 206.93 454.10 195.47 460.25 188.25 Z" />
</g>
<g id="#8ed9f6ff">
<path fill="#8ed9f6" opacity="1.00" d=" M 103.85 191.05 C 113.51 179.82 132.59 179.13 143.14 189.43 C 145.74 191.69 142.10 194.52 140.04 195.48 C 134.76 191.12 128.10 187.58 121.02 189.07 C 115.90 189.58 111.91 192.91 107.92 195.81 C 106.41 194.36 105.07 192.75 103.85 191.05 Z" />
</g>
<g id="#95e2ffff">
<path fill="#95e2ff" opacity="1.00" d=" M 232.62 193.99 C 232.13 191.50 234.83 190.14 236.94 190.42 C 248.31 190.52 259.68 190.38 271.04 190.48 C 272.49 190.32 273.56 191.35 274.67 192.09 C 274.90 193.45 275.16 194.81 275.42 196.18 C 280.03 197.42 280.04 205.11 275.50 206.47 C 274.91 208.47 275.25 211.17 273.20 212.39 C 270.89 213.13 268.43 212.92 266.05 212.98 C 256.67 212.91 247.28 213.00 237.90 212.93 C 235.90 212.93 232.92 212.52 232.71 210.01 C 232.41 204.68 232.61 199.32 232.62 193.99 M 234.75 204.00 C 234.90 206.16 234.27 208.59 235.60 210.50 C 240.71 211.03 245.88 210.53 251.02 210.71 C 258.12 210.51 265.27 211.15 272.35 210.28 C 272.43 204.42 272.83 198.53 272.05 192.71 C 259.92 192.59 247.80 192.63 235.67 192.65 C 234.15 196.25 234.94 200.21 234.75 204.00 Z" />
</g>
<g id="#caf2ffff">
<path fill="#caf2ff" opacity="1.00" d=" M 469.52 192.52 C 471.58 190.66 474.40 190.30 477.00 189.69 C 481.31 190.27 485.53 192.61 487.35 196.72 C 490.33 202.47 487.72 210.51 481.57 212.92 C 485.44 209.43 488.54 204.00 486.28 198.74 C 483.67 190.93 471.34 190.45 467.79 197.74 C 464.96 202.93 467.63 208.81 471.44 212.65 C 463.82 209.16 463.15 197.51 469.52 192.52 Z" />
</g>
<g id="#0d75acff">
<path fill="#0d75ac" opacity="1.00" d=" M 234.75 204.00 C 234.94 200.21 234.15 196.25 235.67 192.65 C 247.80 192.63 259.92 192.59 272.05 192.71 C 272.83 198.53 272.43 204.42 272.35 210.28 C 265.27 211.15 258.12 210.51 251.02 210.71 C 245.88 210.53 240.71 211.03 235.60 210.50 C 234.27 208.59 234.90 206.16 234.75 204.00 M 236.51 194.74 C 236.58 199.61 236.34 204.49 236.75 209.35 C 238.43 209.40 240.13 209.46 241.82 209.51 C 241.55 204.44 242.01 199.36 241.56 194.31 C 240.39 192.81 237.98 194.25 236.51 194.74 M 243.94 194.21 C 243.61 199.30 243.76 204.39 243.78 209.48 C 245.50 209.50 247.22 209.53 248.94 209.55 C 248.88 204.24 248.98 198.93 248.81 193.63 C 247.18 193.82 245.56 194.01 243.94 194.21 M 251.35 194.21 C 250.97 199.27 251.42 204.35 251.11 209.42 C 252.75 209.49 254.39 209.56 256.04 209.63 C 256.13 204.34 256.07 199.05 256.09 193.77 C 254.57 194.01 252.60 193.17 251.35 194.21 Z" />
</g>
<g id="#90dbf2ff">
<path fill="#90dbf2" opacity="1.00" d=" M 236.51 194.74 C 237.98 194.25 240.39 192.81 241.56 194.31 C 242.01 199.36 241.55 204.44 241.82 209.51 C 240.13 209.46 238.43 209.40 236.75 209.35 C 236.34 204.49 236.58 199.61 236.51 194.74 Z" />
</g>
<g id="#8ddaf7ff">
<path fill="#8ddaf7" opacity="1.00" d=" M 243.94 194.21 C 245.56 194.01 247.18 193.82 248.81 193.63 C 248.98 198.93 248.88 204.24 248.94 209.55 C 247.22 209.53 245.50 209.50 243.78 209.48 C 243.76 204.39 243.61 199.30 243.94 194.21 Z" />
</g>
<g id="#89d9f6ff">
<path fill="#89d9f6" opacity="1.00" d=" M 251.35 194.21 C 252.60 193.17 254.57 194.01 256.09 193.77 C 256.07 199.05 256.13 204.34 256.04 209.63 C 254.39 209.56 252.75 209.49 251.11 209.42 C 251.42 204.35 250.97 199.27 251.35 194.21 Z" />
</g>
<g id="#8fd8f6ff">
<path fill="#8fd8f6" opacity="1.00" d=" M 112.02 201.95 C 114.77 198.67 118.52 195.89 122.97 195.81 C 128.03 195.45 134.45 197.50 136.13 202.78 C 134.76 203.75 133.39 204.73 132.03 205.70 C 129.49 203.56 126.49 201.11 122.92 201.72 C 120.25 202.44 118.11 204.28 115.86 205.79 C 114.57 204.52 113.29 203.24 112.02 201.95 Z" />
</g>
<g id="#bfe7f9ff">
<path fill="#bfe7f9" opacity="1.00" d=" M 472.17 201.98 C 472.41 197.39 479.66 196.89 481.06 200.99 C 482.33 203.12 480.47 205.28 479.34 206.99 C 480.31 216.41 483.13 225.85 489.10 233.36 C 487.41 233.32 485.72 233.27 484.04 233.22 C 482.91 231.33 481.69 229.48 480.35 227.73 C 477.90 227.77 475.45 227.76 473.00 227.73 C 471.81 229.40 470.65 231.10 469.53 232.82 C 467.98 232.84 466.44 232.85 464.91 232.88 C 470.26 226.03 473.47 217.60 474.18 208.95 C 474.62 206.33 471.38 204.66 472.17 201.98 M 475.58 217.51 C 478.64 217.68 478.46 214.84 477.79 212.63 C 475.41 213.05 475.99 215.74 475.58 217.51 M 474.72 220.47 C 474.47 221.85 474.20 223.22 473.94 224.60 C 475.98 224.59 478.02 224.59 480.06 224.61 C 479.71 223.08 479.36 221.56 479.04 220.03 C 477.58 220.04 476.14 220.18 474.72 220.47 Z" />
</g>
<g id="#8fd9f7ff">
<path fill="#8fd9f7" opacity="1.00" d=" M 120.23 210.21 C 121.46 207.81 124.44 208.52 126.63 208.33 C 127.70 209.84 128.73 211.39 129.71 212.97 C 128.67 215.27 127.04 218.22 124.00 217.64 C 120.07 218.23 118.14 213.08 120.23 210.21 Z" />
</g>
<g id="#035495ff">
<path fill="#035495" opacity="1.00" d=" M 475.58 217.51 C 475.99 215.74 475.41 213.05 477.79 212.63 C 478.46 214.84 478.64 217.68 475.58 217.51 Z" />
<path fill="#035495" opacity="1.00" d=" M 474.41 383.17 C 475.82 383.76 477.25 384.33 478.71 384.83 C 478.71 399.77 478.70 414.72 478.72 429.66 C 477.30 430.48 475.86 431.24 474.43 432.03 C 474.40 415.74 474.46 399.45 474.41 383.17 Z" />
</g>
<g id="#015493ff">
<path fill="#015493" opacity="1.00" d=" M 474.72 220.47 C 476.14 220.18 477.58 220.04 479.04 220.03 C 479.36 221.56 479.71 223.08 480.06 224.61 C 478.02 224.59 475.98 224.59 473.94 224.60 C 474.20 223.22 474.47 221.85 474.72 220.47 Z" />
</g>
<g id="#8dd8f8ff">
<path fill="#8dd8f8" opacity="1.00" d=" M 371.69 236.95 C 370.96 233.07 373.46 230.22 376.12 227.83 C 379.13 227.75 382.15 227.73 385.18 227.72 C 385.77 228.42 386.38 229.12 386.98 229.83 C 393.92 230.04 400.90 229.42 407.82 230.27 C 408.55 231.75 409.45 233.24 409.32 234.97 C 409.40 241.98 409.35 249.00 409.40 256.01 C 409.47 257.88 408.85 259.65 408.37 261.42 C 406.64 261.95 404.88 262.46 403.06 262.37 C 393.66 262.27 384.25 262.33 374.85 262.36 C 371.61 259.87 371.67 255.60 370.92 251.96 C 370.28 247.94 369.13 243.96 369.19 239.87 C 369.02 238.25 370.65 237.71 371.69 236.95 M 376.47 232.44 C 374.90 234.02 373.40 235.67 372.00 237.40 C 382.02 237.64 392.05 237.37 402.08 237.50 C 403.83 237.46 405.35 238.45 406.90 239.13 C 406.74 237.59 406.59 236.06 406.44 234.54 C 399.89 234.38 393.33 234.46 386.78 234.52 C 386.46 234.01 385.83 232.98 385.51 232.46 C 382.49 232.40 379.48 232.41 376.47 232.44 Z" />
<path fill="#8dd8f8" opacity="1.00" d=" M 224.52 376.00 C 226.13 372.04 229.46 368.53 233.91 368.08 C 240.72 366.65 247.01 372.46 247.44 379.16 C 252.97 378.55 258.64 382.37 259.85 387.83 C 261.35 393.10 258.00 398.99 253.03 401.00 C 251.15 401.84 249.04 401.83 247.02 401.86 C 234.03 401.81 221.03 401.84 208.04 401.86 C 205.62 401.92 203.09 401.54 201.17 399.93 C 196.35 396.58 196.26 388.52 201.13 385.18 C 203.42 383.27 206.49 383.36 209.29 383.38 C 210.24 380.15 211.95 376.70 215.37 375.57 C 218.33 374.16 221.54 375.31 224.52 376.00 Z" />
</g>
<g id="#0086b6ff">
<path fill="#0086b6" opacity="1.00" d=" M 376.47 232.44 C 379.48 232.41 382.49 232.40 385.51 232.46 C 385.83 232.98 386.46 234.01 386.78 234.52 C 393.33 234.46 399.89 234.38 406.44 234.54 C 406.59 236.06 406.74 237.59 406.90 239.13 C 405.35 238.45 403.83 237.46 402.08 237.50 C 392.05 237.37 382.02 237.64 372.00 237.40 C 373.40 235.67 374.90 234.02 376.47 232.44 Z" />
</g>
<g id="#fbfbfbff">
</g>
<g id="#2e5190ff">
<path fill="#2e5190" opacity="1.00" d=" M 417.42 277.38 C 418.90 276.12 420.31 274.76 421.63 273.33 C 421.46 302.22 421.65 331.10 421.54 359.99 C 420.20 359.23 418.82 358.53 417.44 357.88 C 417.40 331.05 417.47 304.21 417.42 277.38 Z" />
</g>
<g id="#0373a8ff">
<path fill="#0373a8" opacity="1.00" d=" M 254.73 278.45 C 255.72 279.03 256.71 279.61 257.71 280.19 C 257.11 289.14 257.70 300.61 266.53 305.54 C 274.89 309.90 283.24 314.28 291.57 318.69 C 291.56 319.65 291.55 320.60 291.56 321.57 C 282.17 316.56 272.57 311.90 263.38 306.55 C 254.53 300.19 254.80 288.20 254.73 278.45 Z" />
</g>
<g id="#f8faf9ff">
</g>
<g id="#fcfcfbff">
</g>
<g id="#92deffff">
<path fill="#92deff" opacity="1.00" d=" M 458.69 311.04 C 458.34 308.55 460.36 305.95 463.00 306.40 C 478.00 306.38 493.01 306.41 508.02 306.38 C 510.26 306.04 512.57 307.76 512.49 310.12 C 512.68 320.08 512.51 330.05 512.57 340.02 C 512.70 341.89 511.94 344.18 509.93 344.70 C 504.13 345.14 498.29 344.49 492.49 345.04 C 492.51 345.71 492.55 347.04 492.57 347.71 C 497.82 347.65 503.08 347.74 508.34 347.64 C 508.40 348.13 508.54 349.11 508.60 349.60 C 507.97 349.61 506.70 349.63 506.07 349.64 C 491.65 349.74 477.23 349.61 462.81 349.73 C 462.72 349.23 462.54 348.24 462.45 347.74 C 468.56 347.61 474.67 347.75 480.78 347.64 C 480.43 346.68 480.90 344.47 479.20 344.85 C 473.45 344.68 467.69 345.01 461.95 344.76 C 459.97 344.88 458.59 342.86 458.69 341.05 C 458.62 331.05 458.65 321.04 458.69 311.04 M 461.87 313.02 C 461.77 321.05 461.83 329.09 461.84 337.12 C 461.63 339.36 463.51 341.89 465.92 341.43 C 479.31 341.42 492.69 341.49 506.07 341.40 C 507.81 341.54 509.67 339.78 509.45 338.00 C 509.57 328.96 509.50 319.91 509.47 310.87 C 506.95 308.31 503.23 308.83 499.97 308.82 C 488.64 308.95 477.29 308.67 465.97 308.93 C 463.62 308.82 461.66 310.61 461.87 313.02 Z" />
</g>
<g id="#8dd9f8ff">
<path fill="#8dd9f8" opacity="1.00" d=" M 524.40 306.61 C 529.14 306.11 534.52 305.39 538.82 307.96 C 541.92 309.75 542.90 313.59 542.78 316.95 C 542.71 325.32 542.81 333.70 542.74 342.07 C 542.75 345.28 541.25 348.90 537.99 350.00 C 533.34 351.70 528.18 351.40 523.41 350.39 C 520.18 349.49 518.22 346.15 518.25 342.92 C 518.21 335.94 517.83 328.96 518.18 321.98 C 518.40 317.87 517.33 313.31 519.70 309.64 C 520.70 307.97 522.59 307.12 524.40 306.61 M 522.87 315.30 C 522.99 315.72 523.22 316.56 523.34 316.97 C 528.41 317.38 533.51 317.15 538.59 317.02 C 538.39 316.64 537.99 315.88 537.78 315.50 C 532.82 315.16 527.84 315.50 522.87 315.30 M 523.40 322.62 C 523.14 323.01 522.63 323.79 522.37 324.18 C 527.58 324.39 532.79 324.24 538.00 324.28 C 537.93 323.84 537.79 322.95 537.72 322.51 C 532.95 322.70 528.16 322.41 523.40 322.62 M 529.48 339.78 C 527.75 340.39 526.93 343.16 528.74 344.28 C 530.51 346.49 534.56 344.11 533.32 341.55 C 532.78 339.92 531.04 339.19 529.48 339.78 Z" />
</g>
<g id="#8ed9f7ff">
<path fill="#8ed9f7" opacity="1.00" d=" M 153.76 321.43 C 159.26 321.11 164.83 320.81 170.31 321.61 C 170.40 322.30 170.59 323.69 170.69 324.38 C 171.94 324.40 173.20 324.43 174.46 324.45 C 175.29 326.04 176.29 328.93 174.01 329.79 C 171.06 330.55 167.94 330.04 164.93 330.15 C 159.38 329.95 153.77 330.67 148.28 329.57 C 148.25 327.91 148.34 326.25 148.55 324.62 C 149.86 324.54 151.18 324.47 152.49 324.40 C 152.91 323.41 153.34 322.42 153.76 321.43 Z" />
</g>
<g id="#0d2466ff">
<path fill="#0d2466" opacity="1.00" d=" M 523.40 322.62 C 528.16 322.41 532.95 322.70 537.72 322.51 C 537.79 322.95 537.93 323.84 538.00 324.28 C 532.79 324.24 527.58 324.39 522.37 324.18 C 522.63 323.79 523.14 323.01 523.40 322.62 Z" />
<path fill="#0d2466" opacity="1.00" d=" M 110.38 430.88 C 111.20 430.96 112.01 431.07 112.82 431.20 C 112.86 436.82 112.67 442.44 112.84 448.06 C 112.87 451.94 115.54 455.26 118.73 457.22 C 123.63 460.34 129.49 461.14 135.07 462.30 C 143.35 463.85 151.58 465.67 159.92 466.89 C 159.91 467.53 159.91 468.82 159.91 469.46 C 148.61 467.17 137.19 465.54 125.95 462.98 C 119.51 461.32 112.31 457.61 110.62 450.62 C 110.12 444.06 110.58 437.46 110.38 430.88 Z" />
</g>
<g id="#f7f7f7ff">
</g>
<g id="#fafaf8ff">
</g>
<g id="#07a2cdff">
<path fill="#07a2cd" opacity="1.00" d=" M 125.38 336.69 C 126.90 338.16 128.45 339.62 130.03 341.04 C 129.74 341.21 129.14 341.55 128.85 341.72 C 130.24 348.05 129.35 354.59 129.42 361.02 C 128.07 360.40 126.72 359.81 125.34 359.29 C 125.39 351.75 125.37 344.22 125.38 336.69 Z" />
</g>
<g id="#20306aff">
<path fill="#20306a" opacity="1.00" d=" M 529.48 339.78 C 531.04 339.19 532.78 339.92 533.32 341.55 C 534.56 344.11 530.51 346.49 528.74 344.28 C 526.93 343.16 527.75 340.39 529.48 339.78 Z" />
</g>
<g id="#0a285dff">
<path fill="#0a285d" opacity="1.00" d=" M 462.81 349.73 C 477.23 349.61 491.65 349.74 506.07 349.64 L 506.01 350.82 C 493.01 350.86 480.00 350.91 467.00 350.93 C 465.51 350.88 463.78 351.13 462.81 349.73 Z" />
</g>
<g id="#8bd9f8ff">
<path fill="#8bd9f8" opacity="1.00" d=" M 104.19 373.30 C 111.81 371.22 120.52 373.29 126.12 378.95 C 131.66 384.27 133.85 392.64 131.93 400.04 C 129.68 409.42 120.54 416.38 110.97 416.50 C 103.15 416.81 95.25 412.75 91.23 405.99 C 86.77 399.01 86.95 389.43 91.53 382.56 C 94.44 378.08 99.10 374.82 104.19 373.30 M 104.37 377.40 C 97.65 379.60 92.62 385.97 91.97 393.01 C 90.86 403.49 100.50 413.35 110.99 412.65 C 120.96 412.51 129.67 403.11 128.63 393.10 C 128.04 381.68 115.05 373.31 104.37 377.40 Z" />
</g>
<g id="#8ed8f7ff">
<path fill="#8ed8f7" opacity="1.00" d=" M 378.64 378.37 C 379.01 375.34 382.73 375.56 385.01 375.64 C 394.02 376.49 403.04 377.27 412.05 378.22 C 415.73 378.66 419.62 378.32 423.13 379.76 C 425.16 381.08 424.35 383.82 424.39 385.85 C 423.53 393.54 422.96 401.27 422.09 408.96 C 418.09 413.91 414.35 419.28 409.81 423.69 C 394.31 422.93 378.85 420.81 363.37 419.49 C 363.06 417.58 362.59 415.45 363.77 413.73 C 367.24 409.24 372.37 406.44 376.20 402.33 C 377.20 394.36 377.72 386.34 378.64 378.37 M 383.94 380.99 C 383.65 388.39 382.37 395.72 382.18 403.14 C 393.45 404.28 404.76 405.06 416.01 406.42 C 416.30 398.90 417.56 391.45 417.81 383.93 C 406.50 383.22 395.27 381.39 383.94 380.99 M 378.05 409.39 C 380.55 409.49 384.32 410.97 384.99 407.51 C 382.49 407.42 379.29 406.52 378.05 409.39 M 386.27 410.57 C 388.29 410.54 390.32 410.50 392.35 410.44 C 392.54 409.91 392.93 408.85 393.12 408.32 C 391.41 408.23 389.69 408.15 387.98 408.08 C 387.41 408.91 386.84 409.74 386.27 410.57 M 394.83 411.02 C 397.44 411.53 400.37 411.96 401.91 409.22 C 399.59 409.30 395.55 407.67 394.83 411.02 M 402.77 411.82 C 405.16 412.07 409.01 413.18 409.80 409.87 C 407.36 410.00 403.78 408.74 402.77 411.82 M 374.80 411.64 C 374.64 412.16 374.34 413.20 374.18 413.72 C 376.53 413.51 379.64 414.41 380.96 411.80 C 378.91 411.65 376.85 411.63 374.80 411.64 M 381.91 414.42 C 384.44 414.58 387.72 415.39 389.10 412.58 C 386.63 412.63 383.06 411.40 381.91 414.42 M 389.92 415.28 C 392.43 415.21 396.03 416.42 397.22 413.36 C 394.67 413.36 391.23 412.35 389.92 415.28 M 397.89 415.83 C 400.38 416.04 404.15 417.42 405.31 414.23 C 402.62 413.56 399.55 413.12 397.89 415.83 Z" />
</g>
<g id="#01a2cdff">
<path fill="#01a2cd" opacity="1.00" d=" M 383.94 380.99 C 395.27 381.39 406.50 383.22 417.81 383.93 C 417.56 391.45 416.30 398.90 416.01 406.42 C 404.76 405.06 393.45 404.28 382.18 403.14 C 382.37 395.72 383.65 388.39 383.94 380.99 M 395.27 385.03 C 396.18 388.33 397.05 391.64 397.74 395.00 C 398.58 394.32 399.42 393.63 400.27 392.96 C 402.71 394.89 404.08 398.73 407.65 398.61 C 407.37 395.42 404.35 393.65 402.45 391.41 C 403.24 391.15 404.83 390.65 405.62 390.40 C 402.29 388.39 398.98 386.27 395.27 385.03 Z" />
</g>
<g id="#8fd9f9ff">
<path fill="#8fd9f9" opacity="1.00" d=" M 108.21 392.91 C 114.06 391.91 116.64 385.79 120.93 382.36 C 123.62 382.54 121.42 384.81 120.68 385.69 C 118.24 388.03 116.43 391.21 113.30 392.70 C 112.72 394.62 112.62 397.55 109.92 397.58 C 107.72 397.18 107.50 395.12 107.55 393.28 C 104.13 391.87 100.71 389.00 99.51 385.42 C 103.20 386.69 106.10 389.72 108.21 392.91 Z" />
</g>
<g id="#8ed8f6ff">
<path fill="#8ed8f6" opacity="1.00" d=" M 395.27 385.03 C 398.98 386.27 402.29 388.39 405.62 390.40 C 404.83 390.65 403.24 391.15 402.45 391.41 C 404.35 393.65 407.37 395.42 407.65 398.61 C 404.08 398.73 402.71 394.89 400.27 392.96 C 399.42 393.63 398.58 394.32 397.74 395.00 C 397.05 391.64 396.18 388.33 395.27 385.03 Z" />
</g>
<g id="#f6f6f5ff">
</g>
<g id="#0a1d5dff">
<path fill="#0a1d5d" opacity="1.00" d=" M 500.04 387.61 C 500.37 387.60 501.03 387.58 501.36 387.57 C 501.13 396.95 501.68 406.35 501.09 415.72 C 500.45 413.18 499.91 410.59 500.03 407.97 C 500.22 401.18 500.00 394.39 500.04 387.61 Z" />
</g>
<g id="#01a1d6ff">
<path fill="#01a1d6" opacity="1.00" d=" M 147.77 404.35 C 151.88 406.39 155.91 408.60 159.91 410.86 C 159.89 412.39 159.89 413.92 159.90 415.47 C 155.53 413.41 151.46 410.78 147.09 408.73 C 147.30 407.26 147.52 405.79 147.77 404.35 Z" />
</g>
<g id="#05a3c9ff">
<path fill="#05a3c9" opacity="1.00" d=" M 378.05 409.39 C 379.29 406.52 382.49 407.42 384.99 407.51 C 384.32 410.97 380.55 409.49 378.05 409.39 Z" />
<path fill="#05a3c9" opacity="1.00" d=" M 386.27 410.57 C 386.84 409.74 387.41 408.91 387.98 408.08 C 389.69 408.15 391.41 408.23 393.12 408.32 C 392.93 408.85 392.54 409.91 392.35 410.44 C 390.32 410.50 388.29 410.54 386.27 410.57 Z" />
<path fill="#05a3c9" opacity="1.00" d=" M 394.83 411.02 C 395.55 407.67 399.59 409.30 401.91 409.22 C 400.37 411.96 397.44 411.53 394.83 411.02 Z" />
</g>
<g id="#f4f4f4ff">
</g>
<g id="#14a9c5ff">
<path fill="#14a9c5" opacity="1.00" d=" M 402.77 411.82 C 403.78 408.74 407.36 410.00 409.80 409.87 C 409.01 413.18 405.16 412.07 402.77 411.82 Z" />
</g>
<g id="#009dc2ff">
<path fill="#009dc2" opacity="1.00" d=" M 374.80 411.64 C 376.85 411.63 378.91 411.65 380.96 411.80 C 379.64 414.41 376.53 413.51 374.18 413.72 C 374.34 413.20 374.64 412.16 374.80 411.64 Z" />
</g>
<g id="#0096c6ff">
<path fill="#0096c6" opacity="1.00" d=" M 381.91 414.42 C 383.06 411.40 386.63 412.63 389.10 412.58 C 387.72 415.39 384.44 414.58 381.91 414.42 Z" />
</g>
<g id="#079dc6ff">
<path fill="#079dc6" opacity="1.00" d=" M 389.92 415.28 C 391.23 412.35 394.67 413.36 397.22 413.36 C 396.03 416.42 392.43 415.21 389.92 415.28 Z" />
</g>
<g id="#1fabcdff">
<path fill="#1fabcd" opacity="1.00" d=" M 397.89 415.83 C 399.55 413.12 402.62 413.56 405.31 414.23 C 404.15 417.42 400.38 416.04 397.89 415.83 Z" />
</g>
<g id="#05a4d1ff">
<path fill="#05a4d1" opacity="1.00" d=" M 167.23 415.03 C 187.77 425.95 208.03 437.37 228.39 448.61 C 228.39 450.16 228.40 451.71 228.41 453.27 C 207.96 442.13 187.55 430.91 167.21 419.58 C 167.24 418.06 167.25 416.54 167.23 415.03 Z" />
</g>
<g id="#f5f5f5ff">
</g>
<g id="#025799ff">
<path fill="#025799" opacity="1.00" d=" M 474.37 440.31 C 475.78 439.49 477.24 438.75 478.69 438.00 C 478.63 446.69 478.81 455.38 478.66 464.07 C 478.48 470.95 472.95 476.11 467.29 479.17 C 452.39 487.64 437.37 495.91 422.60 504.58 C 422.18 503.11 421.58 501.68 421.53 500.14 C 421.80 500.01 422.33 499.74 422.60 499.60 C 436.92 491.62 451.09 483.36 465.42 475.39 C 470.01 472.93 474.76 468.70 474.47 463.03 C 474.42 455.45 474.45 447.88 474.37 440.31 Z" />
</g>
<g id="#3060a0ff">
<path fill="#3060a0" opacity="1.00" d=" M 417.74 441.49 C 418.75 440.97 419.75 440.46 420.74 439.92 C 420.40 447.45 420.75 455.00 420.59 462.55 C 419.79 462.96 419.00 463.38 418.22 463.80 C 418.45 456.36 418.17 448.92 417.74 441.49 Z" />
</g>
<g id="#2f5799ff">
<path fill="#2f5799" opacity="1.00" d=" M 415.19 473.90 C 417.07 472.81 419.03 471.87 421.01 471.00 C 421.77 480.69 419.57 490.55 421.53 500.14 C 421.58 501.68 422.18 503.11 422.60 504.58 C 422.31 504.78 421.73 505.18 421.44 505.39 C 421.34 511.72 422.81 518.69 419.32 524.42 C 416.94 528.89 412.78 532.06 408.44 534.48 C 390.86 544.47 373.39 554.65 355.80 564.61 C 351.46 567.11 346.39 569.25 344.02 573.98 C 340.19 580.49 341.57 588.26 341.26 595.43 C 340.56 597.89 340.01 600.41 340.11 602.99 C 340.27 615.33 340.11 627.66 340.16 640.00 L 337.22 640.00 C 337.16 622.67 337.26 605.35 337.19 588.02 C 336.66 579.25 339.39 569.14 347.54 564.57 C 366.37 553.72 385.22 542.89 404.11 532.12 C 410.51 528.99 417.24 523.73 417.49 515.97 C 417.33 501.61 417.49 487.24 417.39 472.88 C 416.84 473.13 415.74 473.64 415.19 473.90 Z" />
</g>
<g id="#01a3d1ff">
<path fill="#01a3d1" opacity="1.00" d=" M 395.29 485.24 C 396.60 484.48 397.92 483.72 399.25 482.97 C 399.07 489.66 399.37 496.36 399.12 503.04 C 398.49 510.02 392.50 514.80 386.71 517.80 C 367.20 529.07 347.68 540.31 328.24 551.69 C 328.25 550.06 328.25 548.45 328.25 546.84 C 346.88 535.88 365.64 525.15 384.32 514.29 C 389.05 511.84 394.04 508.36 395.03 502.73 C 395.59 496.92 395.08 491.06 395.29 485.24 Z" />
</g>
<g id="#0588bfff">
<path fill="#0588bf" opacity="1.00" d=" M 321.64 526.98 C 323.84 525.78 326.02 524.55 328.19 523.30 C 328.24 531.14 328.23 538.99 328.25 546.84 C 328.25 548.45 328.25 550.06 328.24 551.69 C 328.24 581.13 328.26 610.56 328.26 640.00 L 321.68 640.00 C 321.64 602.33 321.78 564.66 321.64 526.98 Z" />
</g>
<g id="#e9eaecff">
</g>
<g id="#f1f0f2ff">
</g>
<g id="#235394ff">
<path fill="#235394" opacity="1.00" d=" M 278.44 558.37 C 279.82 559.14 281.19 559.94 282.56 560.75 C 282.49 587.17 282.55 613.58 282.53 640.00 L 278.43 640.00 C 278.34 618.88 278.57 597.76 278.33 576.64 C 278.48 570.55 278.45 564.46 278.44 558.37 Z" />
</g>
<g id="#f0f1f2ff">
</g>
<g id="#008abeff">
<path fill="#008abe" opacity="1.00" d=" M 291.61 566.08 C 293.83 567.34 296.07 568.55 298.29 569.82 C 298.06 593.21 298.28 616.61 298.20 640.00 L 291.60 640.00 C 291.54 615.36 291.51 590.72 291.61 566.08 Z" />
</g>
<g id="#f0f1f1ff">
</g>
<g id="#21468bff">
<path fill="#21468b" opacity="1.00" d=" M 340.11 602.99 C 340.01 600.41 340.56 597.89 341.26 595.43 C 341.57 610.28 341.32 625.14 341.40 640.00 L 340.16 640.00 C 340.11 627.66 340.27 615.33 340.11 602.99 Z" />
</g>
</svg>
